<svg width="212" height="38" fill="none" xmlns="http://www.w3.org/2000/svg"><path d="M77.141 26.622l2.496-3.744 2.472 3.744c.217.312.553.48.937.48h2.207v-16.8h-2.808v12.6l-1.415-2.136-.48-.696a1.099 1.099 0 00-1.849 0l-.48.696-1.416 2.136v-12.6h-2.784v16.8h2.184c.385 0 .72-.168.936-.48zM95.174 10.35a.853.853 0 00-.24-.048h-6.168c-.624 0-1.104.504-1.104 1.128v15.672h2.784v-4.08a8.114 8.114 0 002.808-1.176v5.256h2.808V11.43c0-.528-.384-.96-.888-1.08zm-4.728 9.768V13.11h2.808v4.8a5.246 5.246 0 01-2.808 2.208zm15.533-9.768a.853.853 0 00-.24-.048h-7.272v16.824h2.784v-4.104c.864-.168 1.656-.504 2.4-.912l.408.768v4.248h2.808v-4.248l-1.272-2.376c.504-.576.936-1.2 1.272-1.872v-7.2a1.153 1.153 0 00-.888-1.08zm-4.728 2.76h2.808v4.8a5.246 5.246 0 01-2.808 2.208V13.11zm15.532-2.76a.853.853 0 00-.24-.048h-6.168c-.624 0-1.104.504-1.104 1.128v15.672h2.784v-4.08a8.114 8.114 0 002.808-1.176 8.024 8.024 0 002.784-3.216v-7.2c0-.528-.36-.96-.864-1.08zm-4.728 9.768V13.11h2.808v4.8a5.246 5.246 0 01-2.808 2.208zm10.805-9.816h-2.784v15.696c0 .624.48 1.104 1.104 1.104h7.272v-2.784h-5.592V10.302zm15.533.048a.853.853 0 00-.24-.048h-6.168c-.624 0-1.104.504-1.104 1.128v15.672h2.784v-4.08a8.114 8.114 0 002.808-1.176v5.256h2.808V11.43c0-.528-.384-.96-.888-1.08zm-4.728 9.768V13.11h2.808v4.8a5.246 5.246 0 01-2.808 2.208zm15.221-9.816l-2.808 5.616-2.808-5.616h-2.784l4.2 8.4v8.4h2.784v-8.4l4.2-8.4h-2.784zm4.003 14.016v2.784h1.68c.6 0 1.104-.48 1.104-1.104v-1.68h-2.784zm10.795 0h-2.808V13.11h2.808v2.856a5.076 5.076 0 002.784-2.448V11.43c0-.624-.48-1.128-1.104-1.128h-7.272v16.8h7.272c.624 0 1.104-.48 1.104-1.104v-7.104h-2.784v5.424zm7.996-14.016h-2.784v15.696c0 .624.48 1.104 1.104 1.104h7.272v-2.784h-5.592V10.302zm8.021 1.128v14.568c0 .624.48 1.104 1.104 1.104h6.168c.624 0 1.104-.48 1.104-1.104V11.43c0-.624-.48-1.128-1.104-1.128h-6.168c-.624 0-1.104.504-1.104 1.128zm5.592 12.888h-2.808V13.11h2.808v11.208zm10.805-14.016v14.016h-2.808V10.302h-2.784v15.696c0 .624.48 1.104 1.104 1.104h6.168c.624 0 1.104-.48 1.104-1.104V10.302h-2.784zm5.213 0v16.8h7.272c.624 0 1.104-.48 1.104-1.104V11.43c0-.624-.48-1.128-1.104-1.128h-7.272zm5.592 14.016h-2.808V13.11h2.808v11.208zM27.915 21.87h-8.003a.218.218 0 00-.2.126l-7.524 15.053c-.056.134.048.276.2.268h23.035a.209.209 0 00.2-.276l-7.524-15.053c-.024-.067-.104-.119-.184-.119zM12.292 33.03l6.526-12.957a.172.172 0 00.008-.127l-9.441-18.9C9.32.824 8.97.854 8.97 1.092l2.923 31.864c-.016.21.311.276.4.075z" fill="#ECECEC"/><path d="M.591 12.595L6.75.085c.128-.164.392-.074.384.127l3.242 34.622c-.008.209-.32.268-.407.074L.232 15.391a2.732 2.732 0 01.36-2.796z" fill="#E0E0E0"/><path d="M35.934 32.955l2.923-31.864c0-.23-.351-.268-.415-.044l-9.44 18.899a.172.172 0 00.007.127l6.526 12.957c.088.201.415.134.399-.075z" fill="#ECECEC"/><path d="M47.587 15.39l-9.736 19.518c-.088.202-.4.142-.407-.074L40.686.21c-.008-.201.256-.283.384-.127l6.166 12.51a2.73 2.73 0 01.351 2.796z" fill="#E0E0E0"/></svg>